REM DIRINDEX 1\2,1\4,1\5,1\6,1\7,1\3\8,1\3\9,1\3\10
REM DIRNAME folder01,folder02,folder03,folder04,folder05,folder06,folder07,folder08,folder09,folder10
TITLE ""
FILE "DB4500_5th_1A_09.mp3" MP3
  TRACK 01 AUDIO
    TITLE "0:"
    INDEX 01 00:00:00
  TRACK 02 AUDIO
    TITLE "8:cjc113_0389"
    INDEX 01 00:00:01
  TRACK 03 AUDIO
    TITLE "0:"
    INDEX 01 00:01:40
  TRACK 04 AUDIO
    TITLE "9:cjc113_0390"
    INDEX 01 00:01:56
  TRACK 05 AUDIO
    TITLE "0:"
    INDEX 01 00:02:73
  TRACK 06 AUDIO
    TITLE "10:cjc113_0391"
    INDEX 01 00:03:14
  TRACK 07 AUDIO
    TITLE "0:"
    INDEX 01 00:06:37
  TRACK 08 AUDIO
    TITLE "8:cjc113_0392"
    INDEX 01 00:07:02
  TRACK 09 AUDIO
    TITLE "0:"
    INDEX 01 00:08:15
  TRACK 10 AUDIO
    TITLE "9:cjc113_0393"
    INDEX 01 00:08:34
  TRACK 11 AUDIO
    TITLE "0:"
    INDEX 01 00:09:47
  TRACK 12 AUDIO
    TITLE "10:cjc113_0394"
    INDEX 01 00:09:67
  TRACK 13 AUDIO
    TITLE "0:"
    INDEX 01 00:13:33
  TRACK 14 AUDIO
    TITLE "8:cjc113_0395"
    INDEX 01 00:14:02
  TRACK 15 AUDIO
    TITLE "0:"
    INDEX 01 00:15:17
  TRACK 16 AUDIO
    TITLE "9:cjc113_0396"
    INDEX 01 00:15:34
  TRACK 17 AUDIO
    TITLE "0:"
    INDEX 01 00:16:65
  TRACK 18 AUDIO
    TITLE "10:cjc113_0397"
    INDEX 01 00:17:10
  TRACK 19 AUDIO
    TITLE "0:"
    INDEX 01 00:21:09
  TRACK 20 AUDIO
    TITLE "8:cjc113_0398"
    INDEX 01 00:21:49
  TRACK 21 AUDIO
    TITLE "0:"
    INDEX 01 00:23:04
  TRACK 22 AUDIO
    TITLE "9:cjc113_0399"
    INDEX 01 00:23:18
  TRACK 23 AUDIO
    TITLE "0:"
    INDEX 01 00:24:49
  TRACK 24 AUDIO
    TITLE "10:cjc113_0400"
    INDEX 01 00:24:71
  TRACK 25 AUDIO
    TITLE "0:"
    INDEX 01 00:29:15
  TRACK 26 AUDIO
    TITLE "8:cjc113_0401"
    INDEX 01 00:29:58
  TRACK 27 AUDIO
    TITLE "0:"
    INDEX 01 00:30:67
  TRACK 28 AUDIO
    TITLE "9:cjc113_0402"
    INDEX 01 00:31:12
  TRACK 29 AUDIO
    TITLE "0:"
    INDEX 01 00:32:29
  TRACK 30 AUDIO
    TITLE "10:cjc113_0403"
    INDEX 01 00:32:50
  TRACK 31 AUDIO
    TITLE "0:"
    INDEX 01 00:35:47
  TRACK 32 AUDIO
    TITLE "8:cjc113_0404"
    INDEX 01 00:36:17
  TRACK 33 AUDIO
    TITLE "0:"
    INDEX 01 00:37:30
  TRACK 34 AUDIO
    TITLE "9:cjc113_0405"
    INDEX 01 00:37:48
  TRACK 35 AUDIO
    TITLE "0:"
    INDEX 01 00:39:00
  TRACK 36 AUDIO
    TITLE "10:cjc113_0406"
    INDEX 01 00:39:19
  TRACK 37 AUDIO
    TITLE "0:"
    INDEX 01 00:42:70
  TRACK 38 AUDIO
    TITLE "8:cjc113_0407"
    INDEX 01 00:43:40
  TRACK 39 AUDIO
    TITLE "0:"
    INDEX 01 00:46:29
  TRACK 40 AUDIO
    TITLE "9:cjc113_0408"
    INDEX 01 00:46:47
  TRACK 41 AUDIO
    TITLE "0:"
    INDEX 01 00:47:66
  TRACK 42 AUDIO
    TITLE "10:cjc113_0409"
    INDEX 01 00:48:10
  TRACK 43 AUDIO
    TITLE "0:"
    INDEX 01 00:50:25
  TRACK 44 AUDIO
    TITLE "10:cjc113_0410"
    INDEX 01 00:50:70
  TRACK 45 AUDIO
    TITLE "0:"
    INDEX 01 00:54:09
  TRACK 46 AUDIO
    TITLE "8:cjc113_0411"
    INDEX 01 00:54:54
  TRACK 47 AUDIO
    TITLE "0:"
    INDEX 01 00:56:12
  TRACK 48 AUDIO
    TITLE "9:cjc113_0412"
    INDEX 01 00:56:29
  TRACK 49 AUDIO
    TITLE "0:"
    INDEX 01 00:57:37
  TRACK 50 AUDIO
    TITLE "10:cjc113_0413"
    INDEX 01 00:57:56
  TRACK 51 AUDIO
    TITLE "0:"
    INDEX 01 01:02:36
  TRACK 52 AUDIO
    TITLE "8:cjc113_0414"
    INDEX 01 01:03:06
  TRACK 53 AUDIO
    TITLE "0:"
    INDEX 01 01:04:17
  TRACK 54 AUDIO
    TITLE "9:cjc113_0415"
    INDEX 01 01:04:37
  TRACK 55 AUDIO
    TITLE "0:"
    INDEX 01 01:05:62
  TRACK 56 AUDIO
    TITLE "10:cjc113_0416"
    INDEX 01 01:06:04
  TRACK 57 AUDIO
    TITLE "0:"
    INDEX 01 01:10:71
  TRACK 58 AUDIO
    TITLE "8:cjc113_0417"
    INDEX 01 01:11:39
  TRACK 59 AUDIO
    TITLE "0:"
    INDEX 01 01:12:44
  TRACK 60 AUDIO
    TITLE "9:cjc113_0418"
    INDEX 01 01:12:66
  TRACK 61 AUDIO
    TITLE "0:"
    INDEX 01 01:13:63
  TRACK 62 AUDIO
    TITLE "10:cjc113_0419"
    INDEX 01 01:14:12
  TRACK 63 AUDIO
    TITLE "0:"
    INDEX 01 01:16:42
  TRACK 64 AUDIO
    TITLE "10:cjc113_0420"
    INDEX 01 01:17:08
  TRACK 65 AUDIO
    TITLE "0:"
    INDEX 01 01:19:44
  TRACK 66 AUDIO
    TITLE "8:cjc113_0421"
    INDEX 01 01:20:16
  TRACK 67 AUDIO
    TITLE "0:"
    INDEX 01 01:21:10
  TRACK 68 AUDIO
    TITLE "9:cjc113_0422"
    INDEX 01 01:21:31
  TRACK 69 AUDIO
    TITLE "0:"
    INDEX 01 01:22:64
  TRACK 70 AUDIO
    TITLE "10:cjc113_0423"
    INDEX 01 01:23:11
  TRACK 71 AUDIO
    TITLE "0:"
    INDEX 01 01:25:00
  TRACK 72 AUDIO
    TITLE "10:cjc113_0424"
    INDEX 01 01:25:29
  TRACK 73 AUDIO
    TITLE "0:"
    INDEX 01 01:27:36
  TRACK 74 AUDIO
    TITLE "8:cjc113_0425"
    INDEX 01 01:28:08
  TRACK 75 AUDIO
    TITLE "0:"
    INDEX 01 01:29:19
  TRACK 76 AUDIO
    TITLE "9:cjc113_0426"
    INDEX 01 01:29:39
  TRACK 77 AUDIO
    TITLE "0:"
    INDEX 01 01:30:46
  TRACK 78 AUDIO
    TITLE "10:cjc113_0427"
    INDEX 01 01:30:60
  TRACK 79 AUDIO
    TITLE "0:"
    INDEX 01 01:33:01
  TRACK 80 AUDIO
    TITLE "10:cjc113_0428"
    INDEX 01 01:33:52
  TRACK 81 AUDIO
    TITLE "0:"
    INDEX 01 01:36:11
  TRACK 82 AUDIO
    TITLE "8:cjc113_0429"
    INDEX 01 01:36:58
  TRACK 83 AUDIO
    TITLE "0:"
    INDEX 01 01:37:60
  TRACK 84 AUDIO
    TITLE "9:cjc113_0430"
    INDEX 01 01:38:08
  TRACK 85 AUDIO
    TITLE "0:"
    INDEX 01 01:39:04
  TRACK 86 AUDIO
    TITLE "10:cjc113_0431"
    INDEX 01 01:39:25
  TRACK 87 AUDIO
    TITLE "0:"
    INDEX 01 01:42:00
  TRACK 88 AUDIO
    TITLE "10:cjc113_0432"
    INDEX 01 01:42:30
  TRACK 89 AUDIO
    TITLE "0:"
    INDEX 01 01:45:18
